<mxfile host="65bd71144e">
    <diagram id="DJZX5yNQ83qQmMtaysAp" name="Page-1">
        <mxGraphModel dx="898" dy="570" grid="1" gridSize="10" guides="1" tooltips="1" connect="1" arrows="1" fold="1" page="1" pageScale="1" pageWidth="827" pageHeight="1169" math="0" shadow="0">
            <root>
                <mxCell id="0"/>
                <mxCell id="1" parent="0"/>
                <mxCell id="2" value="摄像头预测" style="rounded=0;whiteSpace=wrap;html=1;" vertex="1" parent="1">
                    <mxGeometry x="70" y="75" width="120" height="30" as="geometry"/>
                </mxCell>
                <mxCell id="5" value="摄像头预测" style="rounded=0;whiteSpace=wrap;html=1;" vertex="1" parent="1">
                    <mxGeometry x="80" y="85" width="120" height="30" as="geometry"/>
                </mxCell>
                <mxCell id="6" value="摄像头预测" style="rounded=0;whiteSpace=wrap;html=1;" vertex="1" parent="1">
                    <mxGeometry x="90" y="95" width="120" height="30" as="geometry"/>
                </mxCell>
                <mxCell id="7" value="雷达预测" style="rounded=0;whiteSpace=wrap;html=1;" vertex="1" parent="1">
                    <mxGeometry x="80" y="190" width="120" height="30" as="geometry"/>
                </mxCell>
                <mxCell id="8" value="雷达预测" style="rounded=0;whiteSpace=wrap;html=1;" vertex="1" parent="1">
                    <mxGeometry x="90" y="200" width="120" height="30" as="geometry"/>
                </mxCell>
                <mxCell id="9" value="毫米波雷达预测" style="rounded=0;whiteSpace=wrap;html=1;" vertex="1" parent="1">
                    <mxGeometry x="100" y="210" width="120" height="30" as="geometry"/>
                </mxCell>
                <mxCell id="10" value="激光雷达预测" style="rounded=0;whiteSpace=wrap;html=1;" vertex="1" parent="1">
                    <mxGeometry x="80" y="280" width="120" height="30" as="geometry"/>
                </mxCell>
                <mxCell id="11" value="激光雷达预测" style="rounded=0;whiteSpace=wrap;html=1;" vertex="1" parent="1">
                    <mxGeometry x="90" y="290" width="120" height="30" as="geometry"/>
                </mxCell>
                <mxCell id="12" value="激光雷达预测" style="rounded=0;whiteSpace=wrap;html=1;" vertex="1" parent="1">
                    <mxGeometry x="100" y="300" width="120" height="30" as="geometry"/>
                </mxCell>
                <mxCell id="13" value="定位&lt;br&gt;Localization" style="rounded=0;whiteSpace=wrap;html=1;" vertex="1" parent="1">
                    <mxGeometry x="414" y="110" width="120" height="60" as="geometry"/>
                </mxCell>
                <mxCell id="14" value="Fusion" style="rounded=0;whiteSpace=wrap;html=1;" vertex="1" parent="1">
                    <mxGeometry x="414" y="260" width="120" height="60" as="geometry"/>
                </mxCell>
                <mxCell id="16" value="IMU" style="rounded=0;whiteSpace=wrap;html=1;" vertex="1" parent="1">
                    <mxGeometry x="370" width="70" height="30" as="geometry"/>
                </mxCell>
                <mxCell id="17" value="GNSS" style="rounded=0;whiteSpace=wrap;html=1;" vertex="1" parent="1">
                    <mxGeometry x="450" width="70" height="30" as="geometry"/>
                </mxCell>
                <mxCell id="18" value="HDMap" style="rounded=0;whiteSpace=wrap;html=1;" vertex="1" parent="1">
                    <mxGeometry x="534" width="70" height="30" as="geometry"/>
                </mxCell>
                <mxCell id="19" value="Driving Policy" style="rounded=0;whiteSpace=wrap;html=1;" vertex="1" parent="1">
                    <mxGeometry x="660" y="190" width="120" height="120" as="geometry"/>
                </mxCell>
                <mxCell id="20" value="Mission Planning" style="rounded=0;whiteSpace=wrap;html=1;" vertex="1" parent="1">
                    <mxGeometry x="660" y="40" width="120" height="120" as="geometry"/>
                </mxCell>
                <mxCell id="21" value="Motion Planning" style="rounded=0;whiteSpace=wrap;html=1;" vertex="1" parent="1">
                    <mxGeometry x="840" y="190" width="120" height="120" as="geometry"/>
                </mxCell>
                <mxCell id="22" value="V2X com" style="rounded=0;whiteSpace=wrap;html=1;" vertex="1" parent="1">
                    <mxGeometry x="620" width="70" height="30" as="geometry"/>
                </mxCell>
                <mxCell id="23" value="经纬度控制" style="rounded=0;whiteSpace=wrap;html=1;" vertex="1" parent="1">
                    <mxGeometry x="1020" y="190" width="120" height="120" as="geometry"/>
                </mxCell>
                <mxCell id="34" style="edgeStyle=none;html=1;endArrow=none;endFill=0;" edge="1" parent="1">
                    <mxGeometry relative="1" as="geometry">
                        <mxPoint x="160" y="517.75" as="targetPoint"/>
                        <mxPoint x="270" y="517.75" as="sourcePoint"/>
                    </mxGeometry>
                </mxCell>
                <mxCell id="27" value="" style="points=[];aspect=fixed;html=1;align=center;shadow=0;dashed=0;image;image=img/lib/allied_telesis/security/Surveillance_Camera_Ceiling.svg;" vertex="1" parent="1">
                    <mxGeometry x="100.00000000000001" y="490.05" width="37.2" height="35.4" as="geometry"/>
                </mxCell>
                <mxCell id="32" value="" style="points=[];aspect=fixed;html=1;align=center;shadow=0;dashed=0;image;image=img/lib/allied_telesis/security/Surveillance_Camera_Ceiling.svg;" vertex="1" parent="1">
                    <mxGeometry x="110.00000000000001" y="500.05" width="37.2" height="35.4" as="geometry"/>
                </mxCell>
                <mxCell id="33" value="&lt;span style=&quot;color: rgb(240 , 240 , 240) ; font-family: &amp;#34;helvetica&amp;#34; ; font-size: 12px ; font-style: normal ; font-weight: 400 ; letter-spacing: normal ; text-align: center ; text-indent: 0px ; text-transform: none ; word-spacing: 0px ; background-color: rgb(42 , 42 , 42) ; display: inline ; float: none&quot;&gt;Front Camera（1～3）&lt;/span&gt;" style="points=[];aspect=fixed;html=1;align=center;shadow=0;dashed=0;image;image=img/lib/allied_telesis/security/Surveillance_Camera_Ceiling.svg;" vertex="1" parent="1">
                    <mxGeometry x="120.00000000000001" y="510.05" width="37.2" height="35.4" as="geometry"/>
                </mxCell>
                <mxCell id="35" value="&lt;meta charset=&quot;utf-8&quot;&gt;&lt;span style=&quot;color: rgb(240, 240, 240); font-family: helvetica; font-size: 12px; font-style: normal; font-weight: 400; letter-spacing: normal; text-align: center; text-indent: 0px; text-transform: none; word-spacing: 0px; background-color: rgb(42, 42, 42); display: inline; float: none;&quot;&gt;Front Camera ECU&lt;/span&gt;" style="pointerEvents=1;shadow=0;dashed=0;html=1;strokeColor=none;fillColor=#4495D1;labelPosition=center;verticalLabelPosition=bottom;verticalAlign=top;align=center;outlineConnect=0;shape=mxgraph.veeam.cpu;" vertex="1" parent="1">
                    <mxGeometry x="280" y="495.35" width="44.8" height="44.8" as="geometry"/>
                </mxCell>
                <mxCell id="36" style="edgeStyle=none;html=1;endArrow=none;endFill=0;" edge="1" parent="1">
                    <mxGeometry relative="1" as="geometry">
                        <mxPoint x="160" y="872.4000000000001" as="targetPoint"/>
                        <mxPoint x="270" y="872.4000000000001" as="sourcePoint"/>
                    </mxGeometry>
                </mxCell>
                <mxCell id="38" value="" style="points=[];aspect=fixed;html=1;align=center;shadow=0;dashed=0;image;image=img/lib/allied_telesis/security/Surveillance_Camera_Ceiling.svg;" vertex="1" parent="1">
                    <mxGeometry x="110.00000000000001" y="854.7" width="37.2" height="35.4" as="geometry"/>
                </mxCell>
                <mxCell id="39" value="&lt;font face=&quot;helvetica&quot;&gt;Front Radar（1～2）&lt;/font&gt;" style="points=[];aspect=fixed;html=1;align=center;shadow=0;dashed=0;image;image=img/lib/allied_telesis/security/Surveillance_Camera_Ceiling.svg;" vertex="1" parent="1">
                    <mxGeometry x="120" y="864.7" width="37.2" height="35.4" as="geometry"/>
                </mxCell>
                <mxCell id="40" value="&lt;span style=&quot;color: rgb(240 , 240 , 240) ; font-family: &amp;#34;helvetica&amp;#34; ; font-size: 12px ; font-style: normal ; font-weight: 400 ; letter-spacing: normal ; text-align: center ; text-indent: 0px ; text-transform: none ; word-spacing: 0px ; background-color: rgb(42 , 42 , 42) ; display: inline ; float: none&quot;&gt;Front Radar ECU&lt;/span&gt;" style="pointerEvents=1;shadow=0;dashed=0;html=1;strokeColor=none;fillColor=#4495D1;labelPosition=center;verticalLabelPosition=bottom;verticalAlign=top;align=center;outlineConnect=0;shape=mxgraph.veeam.cpu;" vertex="1" parent="1">
                    <mxGeometry x="280" y="850" width="44.8" height="44.8" as="geometry"/>
                </mxCell>
                <mxCell id="41" style="edgeStyle=none;html=1;endArrow=none;endFill=0;" edge="1" parent="1">
                    <mxGeometry relative="1" as="geometry">
                        <mxPoint x="160" y="1267.1000000000001" as="targetPoint"/>
                        <mxPoint x="270" y="1267.1000000000001" as="sourcePoint"/>
                    </mxGeometry>
                </mxCell>
                <mxCell id="42" value="" style="points=[];aspect=fixed;html=1;align=center;shadow=0;dashed=0;image;image=img/lib/allied_telesis/security/Surveillance_Camera_Ceiling.svg;" vertex="1" parent="1">
                    <mxGeometry x="110" y="1249.4" width="37.2" height="35.4" as="geometry"/>
                </mxCell>
                <mxCell id="43" value="&lt;span style=&quot;color: rgb(240 , 240 , 240) ; font-family: &amp;#34;helvetica&amp;#34; ; font-size: 12px ; font-style: normal ; font-weight: 400 ; letter-spacing: normal ; text-align: center ; text-indent: 0px ; text-transform: none ; word-spacing: 0px ; background-color: rgb(42 , 42 , 42) ; display: inline ; float: none&quot;&gt;LiDars&lt;/span&gt;" style="points=[];aspect=fixed;html=1;align=center;shadow=0;dashed=0;image;image=img/lib/allied_telesis/security/Surveillance_Camera_Ceiling.svg;" vertex="1" parent="1">
                    <mxGeometry x="120" y="1259.4" width="37.2" height="35.4" as="geometry"/>
                </mxCell>
                <mxCell id="44" value="&lt;span style=&quot;color: rgb(240 , 240 , 240) ; font-family: &amp;#34;helvetica&amp;#34; ; font-size: 12px ; font-style: normal ; font-weight: 400 ; letter-spacing: normal ; text-align: center ; text-indent: 0px ; text-transform: none ; word-spacing: 0px ; background-color: rgb(42 , 42 , 42) ; display: inline ; float: none&quot;&gt;LiDar ECU&lt;/span&gt;" style="pointerEvents=1;shadow=0;dashed=0;html=1;strokeColor=none;fillColor=#4495D1;labelPosition=center;verticalLabelPosition=bottom;verticalAlign=top;align=center;outlineConnect=0;shape=mxgraph.veeam.cpu;" vertex="1" parent="1">
                    <mxGeometry x="280" y="1244.7" width="44.8" height="44.8" as="geometry"/>
                </mxCell>
                <mxCell id="45" style="edgeStyle=none;html=1;endArrow=none;endFill=0;" edge="1" parent="1">
                    <mxGeometry relative="1" as="geometry">
                        <mxPoint x="160" y="977.1000000000001" as="targetPoint"/>
                        <mxPoint x="270" y="977.1000000000001" as="sourcePoint"/>
                    </mxGeometry>
                </mxCell>
                <mxCell id="46" value="" style="points=[];aspect=fixed;html=1;align=center;shadow=0;dashed=0;image;image=img/lib/allied_telesis/security/Surveillance_Camera_Ceiling.svg;" vertex="1" parent="1">
                    <mxGeometry x="110" y="959.4000000000001" width="37.2" height="35.4" as="geometry"/>
                </mxCell>
                <mxCell id="48" value="&lt;span style=&quot;color: rgb(240 , 240 , 240) ; font-family: &amp;#34;helvetica&amp;#34; ; font-size: 12px ; font-style: normal ; font-weight: 400 ; letter-spacing: normal ; text-align: center ; text-indent: 0px ; text-transform: none ; word-spacing: 0px ; background-color: rgb(42 , 42 , 42) ; display: inline ; float: none&quot;&gt;Central Radar ECU&lt;/span&gt;" style="pointerEvents=1;shadow=0;dashed=0;html=1;strokeColor=none;fillColor=#4495D1;labelPosition=center;verticalLabelPosition=bottom;verticalAlign=top;align=center;outlineConnect=0;shape=mxgraph.veeam.cpu;" vertex="1" parent="1">
                    <mxGeometry x="280" y="954.7" width="44.8" height="44.8" as="geometry"/>
                </mxCell>
                <mxCell id="49" value="" style="points=[];aspect=fixed;html=1;align=center;shadow=0;dashed=0;image;image=img/lib/allied_telesis/security/Surveillance_Camera_Ceiling.svg;" vertex="1" parent="1">
                    <mxGeometry x="70" y="959.3999999999999" width="37.2" height="35.4" as="geometry"/>
                </mxCell>
                <mxCell id="53" value="" style="points=[];aspect=fixed;html=1;align=center;shadow=0;dashed=0;image;image=img/lib/allied_telesis/security/Surveillance_Camera_Ceiling.svg;" vertex="1" parent="1">
                    <mxGeometry x="120" y="969.4000000000001" width="37.2" height="35.4" as="geometry"/>
                </mxCell>
                <mxCell id="55" value="" style="points=[];aspect=fixed;html=1;align=center;shadow=0;dashed=0;image;image=img/lib/allied_telesis/security/Surveillance_Camera_Ceiling.svg;" vertex="1" parent="1">
                    <mxGeometry x="80" y="969.3999999999999" width="37.2" height="35.4" as="geometry"/>
                </mxCell>
                <mxCell id="56" value="" style="points=[];aspect=fixed;html=1;align=center;shadow=0;dashed=0;image;image=img/lib/allied_telesis/security/Surveillance_Camera_Ceiling.svg;" vertex="1" parent="1">
                    <mxGeometry x="90" y="979.3999999999999" width="37.2" height="35.4" as="geometry"/>
                </mxCell>
                <mxCell id="47" value="&lt;span style=&quot;color: rgb(240 , 240 , 240) ; font-family: &amp;#34;helvetica&amp;#34; ; font-size: 12px ; font-style: normal ; font-weight: 400 ; letter-spacing: normal ; text-align: center ; text-indent: 0px ; text-transform: none ; word-spacing: 0px ; background-color: rgb(42 , 42 , 42) ; display: inline ; float: none&quot;&gt;Central Radar（4～6）&lt;/span&gt;" style="points=[];aspect=fixed;html=1;align=center;shadow=0;dashed=0;image;image=img/lib/allied_telesis/security/Surveillance_Camera_Ceiling.svg;" vertex="1" parent="1">
                    <mxGeometry x="127.19999999999999" y="981.3500000000001" width="37.2" height="35.4" as="geometry"/>
                </mxCell>
                <mxCell id="57" value="&lt;span style=&quot;color: rgb(240 , 240 , 240) ; font-family: &amp;#34;helvetica&amp;#34; ; font-size: 12px ; font-style: normal ; font-weight: 400 ; letter-spacing: normal ; text-align: center ; text-indent: 0px ; text-transform: none ; word-spacing: 0px ; background-color: rgb(42 , 42 , 42) ; display: inline ; float: none&quot;&gt;Auto Parking ECU&lt;/span&gt;" style="pointerEvents=1;shadow=0;dashed=0;html=1;strokeColor=none;fillColor=#4495D1;labelPosition=center;verticalLabelPosition=bottom;verticalAlign=top;align=center;outlineConnect=0;shape=mxgraph.veeam.cpu;" vertex="1" parent="1">
                    <mxGeometry x="405.2" y="477.35" width="44.8" height="44.8" as="geometry"/>
                </mxCell>
                <mxCell id="61" value="Central Compute-1" style="pointerEvents=1;shadow=0;dashed=0;html=1;strokeColor=none;fillColor=#4495D1;labelPosition=center;verticalLabelPosition=bottom;verticalAlign=top;align=center;outlineConnect=0;shape=mxgraph.veeam.cpu_socket;" vertex="1" parent="1">
                    <mxGeometry x="547" y="438" width="44.8" height="44.8" as="geometry"/>
                </mxCell>
                <mxCell id="62" value="Central Compute-2" style="pointerEvents=1;shadow=0;dashed=0;html=1;strokeColor=none;fillColor=#4495D1;labelPosition=center;verticalLabelPosition=bottom;verticalAlign=top;align=center;outlineConnect=0;shape=mxgraph.veeam.cpu_socket;" vertex="1" parent="1">
                    <mxGeometry x="547" y="527.45" width="44.8" height="44.8" as="geometry"/>
                </mxCell>
                <mxCell id="63" value="Domain GW" style="image;html=1;image=img/lib/clip_art/networking/Router_Icon_128x128.png;aspect=fixed;" vertex="1" parent="1">
                    <mxGeometry x="540" y="710" width="37" height="37" as="geometry"/>
                </mxCell>
                <mxCell id="64" value="&lt;span style=&quot;color: rgb(240 , 240 , 240) ; font-family: &amp;#34;helvetica&amp;#34; ; font-size: 12px ; font-weight: 400&quot;&gt;Centrol fusionECU&lt;/span&gt;" style="sketch=0;html=1;fillColor=#5184F3;strokeColor=none;verticalAlign=top;labelPosition=center;verticalLabelPosition=bottom;align=center;spacingTop=-6;fontSize=11;fontStyle=1;fontColor=#999999;shape=mxgraph.gcp2.hexIcon;prIcon=cloud_data_fusion" vertex="1" parent="1">
                    <mxGeometry x="700" y="840" width="66" height="58.5" as="geometry"/>
                </mxCell>
                <mxCell id="65" value="&lt;span style=&quot;color: rgb(240 , 240 , 240) ; font-family: &amp;#34;helvetica&amp;#34; ; font-size: 12px ; font-style: normal ; font-weight: 400 ; letter-spacing: normal ; text-align: center ; text-indent: 0px ; text-transform: none ; word-spacing: 0px ; background-color: rgb(42 , 42 , 42) ; display: inline ; float: none&quot;&gt;Ultrasound ECU&lt;/span&gt;" style="pointerEvents=1;shadow=0;dashed=0;html=1;strokeColor=none;fillColor=#4495D1;labelPosition=center;verticalLabelPosition=bottom;verticalAlign=top;align=center;outlineConnect=0;shape=mxgraph.veeam.cpu;" vertex="1" parent="1">
                    <mxGeometry x="280" y="1064.7" width="44.8" height="44.8" as="geometry"/>
                </mxCell>
                <mxCell id="66" style="edgeStyle=none;html=1;endArrow=none;endFill=0;" edge="1" parent="1">
                    <mxGeometry relative="1" as="geometry">
                        <mxPoint x="160" y="412.4000000000001" as="targetPoint"/>
                        <mxPoint x="270" y="412.4000000000001" as="sourcePoint"/>
                    </mxGeometry>
                </mxCell>
                <mxCell id="67" value="" style="points=[];aspect=fixed;html=1;align=center;shadow=0;dashed=0;image;image=img/lib/allied_telesis/security/Surveillance_Camera_Ceiling.svg;" vertex="1" parent="1">
                    <mxGeometry x="110" y="394.70000000000005" width="37.2" height="35.4" as="geometry"/>
                </mxCell>
                <mxCell id="68" value="&lt;span style=&quot;color: rgb(240 , 240 , 240) ; font-family: &amp;#34;helvetica&amp;#34; ; font-size: 12px ; font-style: normal ; font-weight: 400 ; letter-spacing: normal ; text-align: center ; text-indent: 0px ; text-transform: none ; word-spacing: 0px ; background-color: rgb(42 , 42 , 42) ; display: inline ; float: none&quot;&gt;环视摄像头ECU&lt;/span&gt;" style="pointerEvents=1;shadow=0;dashed=0;html=1;strokeColor=none;fillColor=#4495D1;labelPosition=center;verticalLabelPosition=bottom;verticalAlign=top;align=center;outlineConnect=0;shape=mxgraph.veeam.cpu;" vertex="1" parent="1">
                    <mxGeometry x="280" y="390" width="44.8" height="44.8" as="geometry"/>
                </mxCell>
                <mxCell id="69" value="" style="points=[];aspect=fixed;html=1;align=center;shadow=0;dashed=0;image;image=img/lib/allied_telesis/security/Surveillance_Camera_Ceiling.svg;" vertex="1" parent="1">
                    <mxGeometry x="70" y="394.69999999999993" width="37.2" height="35.4" as="geometry"/>
                </mxCell>
                <mxCell id="70" value="" style="points=[];aspect=fixed;html=1;align=center;shadow=0;dashed=0;image;image=img/lib/allied_telesis/security/Surveillance_Camera_Ceiling.svg;" vertex="1" parent="1">
                    <mxGeometry x="120" y="404.70000000000005" width="37.2" height="35.4" as="geometry"/>
                </mxCell>
                <mxCell id="71" value="" style="points=[];aspect=fixed;html=1;align=center;shadow=0;dashed=0;image;image=img/lib/allied_telesis/security/Surveillance_Camera_Ceiling.svg;" vertex="1" parent="1">
                    <mxGeometry x="80" y="404.69999999999993" width="37.2" height="35.4" as="geometry"/>
                </mxCell>
                <mxCell id="72" value="" style="points=[];aspect=fixed;html=1;align=center;shadow=0;dashed=0;image;image=img/lib/allied_telesis/security/Surveillance_Camera_Ceiling.svg;" vertex="1" parent="1">
                    <mxGeometry x="90" y="414.69999999999993" width="37.2" height="35.4" as="geometry"/>
                </mxCell>
                <mxCell id="73" value="&lt;span style=&quot;color: rgb(240 , 240 , 240) ; font-family: &amp;#34;helvetica&amp;#34; ; font-size: 12px ; font-style: normal ; font-weight: 400 ; letter-spacing: normal ; text-align: center ; text-indent: 0px ; text-transform: none ; word-spacing: 0px ; background-color: rgb(42 , 42 , 42) ; display: inline ; float: none&quot;&gt;环视摄像头（4～6/120度）&lt;/span&gt;" style="points=[];aspect=fixed;html=1;align=center;shadow=0;dashed=0;image;image=img/lib/allied_telesis/security/Surveillance_Camera_Ceiling.svg;" vertex="1" parent="1">
                    <mxGeometry x="127.19999999999999" y="416.6500000000001" width="37.2" height="35.4" as="geometry"/>
                </mxCell>
                <mxCell id="74" style="edgeStyle=none;html=1;endArrow=none;endFill=0;" edge="1" parent="1">
                    <mxGeometry relative="1" as="geometry">
                        <mxPoint x="160" y="612.7" as="targetPoint"/>
                        <mxPoint x="270" y="612.7" as="sourcePoint"/>
                    </mxGeometry>
                </mxCell>
                <mxCell id="77" value="&lt;span style=&quot;color: rgb(240 , 240 , 240) ; font-family: &amp;#34;helvetica&amp;#34; ; font-size: 12px ; font-style: normal ; font-weight: 400 ; letter-spacing: normal ; text-align: center ; text-indent: 0px ; text-transform: none ; word-spacing: 0px ; background-color: rgb(42 , 42 , 42) ; display: inline ; float: none&quot;&gt;倒车影像（1广角）&lt;/span&gt;" style="points=[];aspect=fixed;html=1;align=center;shadow=0;dashed=0;image;image=img/lib/allied_telesis/security/Surveillance_Camera_Ceiling.svg;" vertex="1" parent="1">
                    <mxGeometry x="120" y="594" width="37.2" height="35.4" as="geometry"/>
                </mxCell>
                <mxCell id="78" value="&lt;span style=&quot;color: rgb(240 , 240 , 240) ; font-family: &amp;#34;helvetica&amp;#34; ; font-size: 12px ; font-style: normal ; font-weight: 400 ; letter-spacing: normal ; text-align: center ; text-indent: 0px ; text-transform: none ; word-spacing: 0px ; background-color: rgb(42 , 42 , 42) ; display: inline ; float: none&quot;&gt;倒车影像ECU&lt;/span&gt;" style="pointerEvents=1;shadow=0;dashed=0;html=1;strokeColor=none;fillColor=#4495D1;labelPosition=center;verticalLabelPosition=bottom;verticalAlign=top;align=center;outlineConnect=0;shape=mxgraph.veeam.cpu;" vertex="1" parent="1">
                    <mxGeometry x="280" y="590.3000000000001" width="44.8" height="44.8" as="geometry"/>
                </mxCell>
                <mxCell id="79" style="edgeStyle=none;html=1;endArrow=none;endFill=0;" edge="1" parent="1">
                    <mxGeometry relative="1" as="geometry">
                        <mxPoint x="160" y="712.4000000000001" as="targetPoint"/>
                        <mxPoint x="270" y="712.4000000000001" as="sourcePoint"/>
                    </mxGeometry>
                </mxCell>
                <mxCell id="80" value="" style="points=[];aspect=fixed;html=1;align=center;shadow=0;dashed=0;image;image=img/lib/allied_telesis/security/Surveillance_Camera_Ceiling.svg;" vertex="1" parent="1">
                    <mxGeometry x="120" y="693.7" width="37.2" height="35.4" as="geometry"/>
                </mxCell>
                <mxCell id="81" value="&lt;span style=&quot;color: rgb(240 , 240 , 240) ; font-family: &amp;#34;helvetica&amp;#34; ; font-size: 12px ; font-style: normal ; font-weight: 400 ; letter-spacing: normal ; text-align: center ; text-indent: 0px ; text-transform: none ; word-spacing: 0px ; background-color: rgb(42 , 42 , 42) ; display: inline ; float: none&quot;&gt;驾驶监测ECU&lt;/span&gt;" style="pointerEvents=1;shadow=0;dashed=0;html=1;strokeColor=none;fillColor=#4495D1;labelPosition=center;verticalLabelPosition=bottom;verticalAlign=top;align=center;outlineConnect=0;shape=mxgraph.veeam.cpu;" vertex="1" parent="1">
                    <mxGeometry x="280" y="690.0000000000001" width="44.8" height="44.8" as="geometry"/>
                </mxCell>
                <mxCell id="82" value="&lt;span style=&quot;color: rgb(240 , 240 , 240) ; font-family: &amp;#34;helvetica&amp;#34; ; font-size: 12px ; font-style: normal ; font-weight: 400 ; letter-spacing: normal ; text-align: center ; text-indent: 0px ; text-transform: none ; word-spacing: 0px ; background-color: rgb(42 , 42 , 42) ; display: inline ; float: none&quot;&gt;驾驶监测摄像头（1～2）&lt;/span&gt;" style="points=[];aspect=fixed;html=1;align=center;shadow=0;dashed=0;image;image=img/lib/allied_telesis/security/Surveillance_Camera_Ceiling.svg;" vertex="1" parent="1">
                    <mxGeometry x="130" y="703.7" width="37.2" height="35.4" as="geometry"/>
                </mxCell>
            </root>
        </mxGraphModel>
    </diagram>
</mxfile>